<svg version="1.1" id="Layer_1" xmlns="http://www.w3.org/2000/svg" xmlns:xlink="http://www.w3.org/1999/xlink" x="0px" y="0px"
	 width="100%" viewBox="0 0 960 960" enable-background="new 0 0 960 960" xml:space="preserve">
<path fill="#FFFFFF" opacity="1.000000" stroke="none" 
	d="
M532.000000,961.000000 
	C354.666656,961.000000 177.833328,961.000000 1.000000,961.000000 
	C1.000000,641.000000 1.000000,321.000000 1.000000,1.000000 
	C321.000000,1.000000 641.000000,1.000000 961.000000,1.000000 
	C961.000000,321.000000 961.000000,641.000000 961.000000,961.000000 
	C818.166687,961.000000 675.333313,961.000000 532.000000,961.000000 
M495.648834,382.720123 
	C495.648834,388.760681 495.648834,394.801270 495.648834,401.964264 
	C493.866455,400.323975 493.073059,399.593842 492.087067,398.202820 
	C486.437897,390.408630 478.978882,385.055023 469.988129,381.732147 
	C441.276001,371.120544 407.406067,382.768433 392.210754,410.320801 
	C373.020721,445.116364 373.098602,481.257904 390.375610,516.768188 
	C400.090515,536.735718 416.989532,548.595825 439.277466,551.435486 
	C454.484558,553.372925 469.245422,551.802856 482.610840,541.722412 
	C486.797211,537.875366 490.983551,534.028259 495.521118,529.858459 
	C495.521118,536.432617 495.521118,542.966370 495.521118,549.469971 
	C518.009644,549.469971 539.866943,549.469971 561.892761,549.469971 
	C561.963806,548.279297 562.055054,547.463013 562.055115,546.646729 
	C562.062073,492.537506 562.068176,438.428284 562.017151,384.319092 
	C562.016113,383.188873 561.347534,382.059296 560.089478,380.664978 
	C540.098450,380.655334 520.107300,380.619324 500.116608,380.692261 
	C498.705322,380.697388 497.296997,381.505920 495.648834,382.720123 
M645.090759,380.089661 
	C637.136902,380.069855 629.182739,379.999847 621.229187,380.041199 
	C606.826416,380.116119 592.423889,380.257385 577.379578,380.194885 
	C576.942627,380.243500 576.505737,380.292145 575.510437,380.165253 
	C575.483826,380.639832 575.457214,381.114410 575.528076,382.094177 
	C575.712219,382.380615 575.896423,382.667084 576.085205,383.690704 
	C582.996521,399.493500 589.866089,415.314697 596.831299,431.093689 
	C603.456299,446.102020 610.181274,461.066223 616.930786,476.816498 
	C622.905884,490.231781 628.880981,503.647034 634.929810,517.806274 
	C637.771912,524.355164 640.838440,530.820435 643.326843,537.501099 
	C644.129150,539.655090 644.163391,542.702942 643.260254,544.782043 
	C638.702271,555.274292 633.718872,565.581787 628.418518,576.427612 
	C622.356750,589.284729 616.294983,602.141907 609.758057,615.534912 
	C607.866516,619.702393 605.975037,623.869934 603.826843,628.332458 
	C603.826843,628.332458 603.807739,628.723083 603.225159,629.283691 
	C604.610535,629.820496 605.993591,630.818237 607.381531,630.824951 
	C628.034607,630.924927 648.690613,630.728210 669.340027,631.018738 
	C674.062622,631.085083 676.258972,629.599121 678.112915,625.292297 
	C706.888123,558.443848 735.865967,491.682709 764.743286,424.878204 
	C770.613953,411.297058 776.264343,397.620667 782.455933,383.485382 
	C782.521790,382.505402 782.587708,381.525391 781.843323,380.122955 
	C773.194153,380.092041 764.544739,380.003723 755.895874,380.043182 
	C741.603943,380.108368 727.312500,380.256012 712.367249,380.179535 
	C711.617004,380.786102 710.866699,381.392670 709.673096,382.560791 
	C700.163208,409.826904 690.653320,437.092987 680.673157,465.707489 
	C679.522583,462.779694 678.901794,461.272552 678.334412,459.745605 
	C668.999023,434.622925 659.684021,409.492645 650.304016,384.386627 
	C649.773682,382.967255 648.722046,381.742645 647.298035,380.172363 
	C646.862183,380.237396 646.426270,380.302460 645.090759,380.089661 
M192.785721,338.952881 
	C192.780930,407.632599 192.774734,476.312286 192.782013,544.992004 
	C192.782150,546.312134 192.941437,547.632324 193.432739,549.710449 
	C215.213974,549.710449 236.995193,549.710449 259.268280,549.710449 
	C259.268280,547.629089 259.268280,545.828735 259.268280,544.028381 
	C259.268250,525.041016 259.358337,506.052795 259.190765,487.066864 
	C259.157959,483.350739 260.236755,482.117493 263.986755,482.247009 
	C271.472839,482.505615 278.977814,482.472290 286.468323,482.288544 
	C298.300110,481.998291 310.070618,481.167755 321.606140,476.231812 
	C321.737671,476.128693 321.869202,476.025604 322.739349,475.902832 
	C326.876495,473.704468 331.013641,471.506073 335.836487,469.148468 
	C339.374512,466.388397 343.298706,464.001984 346.388580,460.808319 
	C368.356903,438.102203 371.247589,411.122803 362.243225,382.384888 
	C356.408661,363.763672 343.506226,350.863647 324.487396,343.466522 
	C312.889435,338.793182 300.738586,337.124451 288.344238,337.094299 
	C258.056915,337.020630 227.769226,337.056366 197.481812,337.111511 
	C195.990067,337.114227 194.499390,337.719482 192.785721,338.952881 
z"/>
<path fill="#31557F" opacity="1.000000" stroke="none" 
	d="
M628.884766,575.954163 
	C633.718872,565.581787 638.702271,555.274292 643.260254,544.782043 
	C644.163391,542.702942 644.129150,539.655090 643.326843,537.501099 
	C640.838440,530.820435 637.771912,524.355164 635.165894,517.239624 
	C635.399536,516.056702 635.589294,515.358398 635.366394,514.836304 
	C631.147888,504.956451 627.003235,495.041626 622.554504,485.265472 
	C621.070923,482.005310 618.782715,479.111237 616.862305,476.049805 
	C610.181274,461.066223 603.456299,446.102020 596.831299,431.093689 
	C589.866089,415.314697 582.996521,399.493500 576.460266,383.156555 
	C578.786865,382.415741 580.738037,382.033722 582.690002,382.029480 
	C602.887939,381.985443 623.086182,382.036774 643.283691,381.934357 
	C644.829285,381.926544 646.369995,380.952362 647.912964,380.427368 
	C648.722046,381.742645 649.773682,382.967255 650.304016,384.386627 
	C659.684021,409.492645 668.999023,434.622925 678.334412,459.745605 
	C678.901794,461.272552 679.522583,462.779694 680.673157,465.707489 
	C690.653320,437.092987 700.163208,409.826904 710.355530,382.280579 
	C732.614868,382.001038 754.192139,381.947418 775.768127,382.089050 
	C777.854858,382.102722 779.933777,383.326233 782.016296,383.988159 
	C776.264343,397.620667 770.613953,411.297058 764.743286,424.878204 
	C735.865967,491.682709 706.888123,558.443848 678.112915,625.292297 
	C676.258972,629.599121 674.062622,631.085083 669.340027,631.018738 
	C648.690613,630.728210 628.034607,630.924927 607.381531,630.824951 
	C605.993591,630.818237 604.610535,629.820496 603.798889,629.337036 
	C614.476562,629.562012 624.579895,629.817932 634.684509,629.884338 
	C647.775635,629.970398 660.867798,629.905396 673.959473,629.905396 
	C673.960144,629.604431 673.960815,629.303406 673.961487,629.002441 
	C672.374023,629.002441 670.786499,629.002502 669.199036,629.002502 
	C649.593201,629.002502 629.987305,629.031555 610.381775,628.960144 
	C608.281250,628.952454 606.182922,628.359131 604.083557,628.037476 
	C605.975037,623.869934 607.866516,619.702393 610.331970,615.215820 
	C611.608887,614.250061 612.588074,613.736389 612.973206,612.936707 
	C618.053955,602.384521 623.106567,591.817688 628.007935,581.181580 
	C628.721497,579.633240 628.612976,577.706055 628.884766,575.954163 
z"/>
<path fill="#30547E" opacity="1.000000" stroke="none" 
	d="
M481.968964,541.895508 
	C469.245422,551.802856 454.484558,553.372925 439.277466,551.435486 
	C416.989532,548.595825 400.090515,536.735718 390.375610,516.768188 
	C373.098602,481.257904 373.020721,445.116364 392.210754,410.320801 
	C407.406067,382.768433 441.276001,371.120544 469.988129,381.732147 
	C478.978882,385.055023 486.437897,390.408630 491.934875,398.717346 
	C493.203094,400.409882 494.623505,401.587860 496.043884,402.765869 
	C496.695251,401.390228 497.852905,400.034729 497.908600,398.635376 
	C498.127075,393.145660 497.998047,387.642181 498.465118,382.095917 
	C519.288879,382.095581 539.645630,382.143127 560.001709,382.647369 
	C560.000732,386.767914 560.000061,390.431732 560.000061,394.095581 
	C560.000000,443.557343 559.945374,493.019287 560.095093,542.480591 
	C560.108215,546.827637 559.047729,548.178528 554.560120,548.107727 
	C537.577454,547.839783 520.586426,547.869995 503.602448,548.091858 
	C499.379425,548.147034 497.449310,547.270020 497.916809,542.635376 
	C498.315948,538.679138 498.129364,534.643860 497.949158,530.654968 
	C497.792633,527.190491 495.311188,525.804871 493.141815,528.139282 
	C489.129425,532.456970 485.662872,537.281860 481.968964,541.895508 
M493.220612,478.562347 
	C496.238861,470.295197 496.419006,461.894653 493.850891,453.548645 
	C490.495667,442.644623 481.381653,436.220032 470.163788,436.458954 
	C459.122131,436.694153 449.746521,443.673798 447.435547,454.685547 
	C446.198669,460.578979 446.007080,466.995575 446.860046,472.959229 
	C448.530823,484.641022 456.755157,492.321503 467.458771,493.656311 
	C478.688538,495.056763 487.525452,490.069550 493.220612,478.562347 
z"/>
<path fill="#30547E" opacity="1.000000" stroke="none" 
	d="
M322.000732,475.922516 
	C321.869202,476.025604 321.737671,476.128693 321.141479,475.926208 
	C319.590393,475.658783 318.489838,475.597961 317.419708,475.750671 
	C307.642029,477.145996 297.906982,479.005707 288.083832,479.863800 
	C280.329010,480.541199 272.467773,479.993927 264.653778,480.001862 
	C258.366913,480.008270 257.015350,481.290436 257.010101,487.519501 
	C256.993225,507.636261 257.019836,527.752991 256.559814,547.918091 
	C235.533524,547.966492 214.977127,547.966492 194.018326,547.966492 
	C194.018326,545.501099 194.018326,543.861267 194.018326,542.221436 
	C194.018311,476.140564 194.016663,410.059723 194.027588,343.978851 
	C194.027863,342.318787 194.166656,340.658691 194.685883,338.998993 
	C227.025757,338.999573 258.921722,338.861542 290.814575,339.111969 
	C297.519897,339.164612 304.225891,340.559631 310.909302,341.495087 
	C315.637939,342.156891 320.329010,343.086761 325.036865,343.896973 
	C343.506226,350.863647 356.408661,363.763672 362.243225,382.384888 
	C371.247589,411.122803 368.356903,438.102203 346.388580,460.808319 
	C343.298706,464.001984 339.374512,466.388397 335.314880,468.974640 
	C330.240021,470.655457 324.934387,471.158600 322.000732,475.922516 
M259.468048,430.314423 
	C267.569458,430.506653 275.670868,430.698914 283.772278,430.891174 
	C283.714111,430.487396 283.655945,430.083588 284.207123,429.241943 
	C294.473816,426.702942 298.766754,421.470276 299.150238,411.027863 
	C299.518280,401.005951 295.739014,393.536743 287.471252,391.997131 
	C278.344635,390.297546 268.860962,390.515259 259.088501,389.868439 
	C259.088501,403.983032 259.088501,416.761078 259.468048,430.314423 
M257.024414,413.494324 
	C257.024414,418.227203 257.024414,422.960083 257.024414,427.692963 
	C257.241547,427.682007 257.458649,427.671082 257.675781,427.660126 
	C257.675781,415.816742 257.675781,403.973328 257.675781,392.129944 
	C257.458679,392.128937 257.241577,392.127899 257.024475,392.126892 
	C257.024475,398.916840 257.024475,405.706757 257.024414,413.494324 
z"/>
<path fill="#31557F" opacity="1.000000" stroke="none" 
	d="
M482.289917,541.808960 
	C485.662872,537.281860 489.129425,532.456970 493.141815,528.139282 
	C495.311188,525.804871 497.792633,527.190491 497.949158,530.654968 
	C498.129364,534.643860 498.315948,538.679138 497.916809,542.635376 
	C497.449310,547.270020 499.379425,548.147034 503.602448,548.091858 
	C520.586426,547.869995 537.577454,547.839783 554.560120,548.107727 
	C559.047729,548.178528 560.108215,546.827637 560.095093,542.480591 
	C559.945374,493.019287 560.000000,443.557343 560.000061,394.095581 
	C560.000061,390.431732 560.000732,386.767914 560.231995,382.493286 
	C560.638794,381.564789 560.814575,381.247101 560.990417,380.929413 
	C561.347534,382.059296 562.016113,383.188873 562.017151,384.319092 
	C562.068176,438.428284 562.062073,492.537506 562.055115,546.646729 
	C562.055054,547.463013 561.963806,548.279297 561.892761,549.469971 
	C539.866943,549.469971 518.009644,549.469971 495.521118,549.469971 
	C495.521118,542.966370 495.521118,536.432617 495.521118,529.858459 
	C490.983551,534.028259 486.797211,537.875366 482.289917,541.808960 
z"/>
<path fill="#31557F" opacity="1.000000" stroke="none" 
	d="
M257.029694,547.869751 
	C257.019836,527.752991 256.993225,507.636261 257.010101,487.519501 
	C257.015350,481.290436 258.366913,480.008270 264.653778,480.001862 
	C272.467773,479.993927 280.329010,480.541199 288.083832,479.863800 
	C297.906982,479.005707 307.642029,477.145996 317.419708,475.750671 
	C318.489838,475.597961 319.590393,475.658783 320.890808,475.926056 
	C310.070618,481.167755 298.300110,481.998291 286.468323,482.288544 
	C278.977814,482.472290 271.472839,482.505615 263.986755,482.247009 
	C260.236755,482.117493 259.157959,483.350739 259.190765,487.066864 
	C259.358337,506.052795 259.268250,525.041016 259.268280,544.028381 
	C259.268280,545.828735 259.268280,547.629089 259.268280,549.710449 
	C236.995193,549.710449 215.213974,549.710449 193.697174,549.323486 
	C213.272141,548.926025 232.582794,548.941406 251.893036,548.859985 
	C253.606613,548.852783 255.317535,548.214844 257.029694,547.869751 
M300.506897,480.473846 
	C300.506897,480.473846 300.508484,480.513123 300.506897,480.473846 
z"/>
<path fill="#023F74" opacity="1.000000" stroke="none" 
	d="
M256.559814,547.918091 
	C255.317535,548.214844 253.606613,548.852783 251.893036,548.859985 
	C232.582794,548.941406 213.272141,548.926025 193.494049,548.944519 
	C192.941437,547.632324 192.782150,546.312134 192.782013,544.992004 
	C192.774734,476.312286 192.780930,407.632599 193.150116,338.586731 
	C193.756622,338.479950 193.998749,338.739288 194.240860,338.998627 
	C194.166656,340.658691 194.027863,342.318787 194.027588,343.978851 
	C194.016663,410.059723 194.018311,476.140564 194.018326,542.221436 
	C194.018326,543.861267 194.018326,545.501099 194.018326,547.966492 
	C214.977127,547.966492 235.533524,547.966492 256.559814,547.918091 
z"/>
<path fill="#31557F" opacity="1.000000" stroke="none" 
	d="
M194.685883,338.998993 
	C193.998749,338.739288 193.756622,338.479950 193.261353,338.132385 
	C194.499390,337.719482 195.990067,337.114227 197.481812,337.111511 
	C227.769226,337.056366 258.056915,337.020630 288.344238,337.094299 
	C300.738586,337.124451 312.889435,338.793182 324.762146,343.681763 
	C320.329010,343.086761 315.637939,342.156891 310.909302,341.495087 
	C304.225891,340.559631 297.519897,339.164612 290.814575,339.111969 
	C258.921722,338.861542 227.025757,338.999573 194.685883,338.998993 
z"/>
<path fill="#30547E" opacity="1.000000" stroke="none" 
	d="
M616.896545,476.433167 
	C618.782715,479.111237 621.070923,482.005310 622.554504,485.265472 
	C627.003235,495.041626 631.147888,504.956451 635.366394,514.836304 
	C635.589294,515.358398 635.399536,516.056702 635.129028,516.867676 
	C628.880981,503.647034 622.905884,490.231781 616.896545,476.433167 
z"/>
<path fill="#30547E" opacity="1.000000" stroke="none" 
	d="
M628.651672,576.190918 
	C628.612976,577.706055 628.721497,579.633240 628.007935,581.181580 
	C623.106567,591.817688 618.053955,602.384521 612.973206,612.936707 
	C612.588074,613.736389 611.608887,614.250061 610.569519,614.947876 
	C616.294983,602.141907 622.356750,589.284729 628.651672,576.190918 
z"/>
<path fill="#023F74" opacity="1.000000" stroke="none" 
	d="
M782.236084,383.736755 
	C779.933777,383.326233 777.854858,382.102722 775.768127,382.089050 
	C754.192139,381.947418 732.614868,382.001038 710.577209,381.999786 
	C710.866699,381.392670 711.617004,380.786102 713.029419,380.512207 
	C734.381653,380.917419 755.071716,381.006897 775.761902,381.038818 
	C778.058838,381.042358 780.356323,380.717804 782.653564,380.545410 
	C782.587708,381.525391 782.521790,382.505402 782.236084,383.736755 
z"/>
<path fill="#023F74" opacity="1.000000" stroke="none" 
	d="
M647.605469,380.299866 
	C646.369995,380.952362 644.829285,381.926544 643.283691,381.934357 
	C623.086182,382.036774 602.887939,381.985443 582.690002,382.029480 
	C580.738037,382.033722 578.786865,382.415741 576.457947,382.787964 
	C575.896423,382.667084 575.712219,382.380615 575.694702,381.557556 
	C575.930420,380.794159 575.999634,380.567444 576.068787,380.340759 
	C576.505737,380.292145 576.942627,380.243500 578.036011,380.520386 
	C600.515930,380.911438 622.339294,380.982483 644.162781,381.014008 
	C644.771667,381.014893 645.381165,380.592529 645.990417,380.367523 
	C646.426270,380.302460 646.862183,380.237396 647.605469,380.299866 
z"/>
<path fill="#023F74" opacity="1.000000" stroke="none" 
	d="
M603.955200,628.184937 
	C606.182922,628.359131 608.281250,628.952454 610.381775,628.960144 
	C629.987305,629.031555 649.593201,629.002502 669.199036,629.002502 
	C670.786499,629.002502 672.374023,629.002441 673.961487,629.002441 
	C673.960815,629.303406 673.960144,629.604431 673.959473,629.905396 
	C660.867798,629.905396 647.775635,629.970398 634.684509,629.884338 
	C624.579895,629.817932 614.476562,629.562012 604.090210,629.056702 
	C603.807739,628.723083 603.826843,628.332458 603.955200,628.184937 
z"/>
<path fill="#31557F" opacity="1.000000" stroke="none" 
	d="
M497.998138,382.143799 
	C497.998047,387.642181 498.127075,393.145660 497.908600,398.635376 
	C497.852905,400.034729 496.695251,401.390228 496.043884,402.765869 
	C494.623505,401.587860 493.203094,400.409882 492.031189,399.047791 
	C493.073059,399.593842 493.866455,400.323975 495.648834,401.964264 
	C495.648834,394.801270 495.648834,388.760681 496.118835,382.375183 
	C497.058594,382.068085 497.528381,382.105957 497.998138,382.143799 
z"/>
<path fill="#31557F" opacity="1.000000" stroke="none" 
	d="
M782.248413,380.334198 
	C780.356323,380.717804 778.058838,381.042358 775.761902,381.038818 
	C755.071716,381.006897 734.381653,380.917419 713.356201,380.606873 
	C727.312500,380.256012 741.603943,380.108368 755.895874,380.043182 
	C764.544739,380.003723 773.194153,380.092041 782.248413,380.334198 
z"/>
<path fill="#31557F" opacity="1.000000" stroke="none" 
	d="
M645.540588,380.228577 
	C645.381165,380.592529 644.771667,381.014893 644.162781,381.014008 
	C622.339294,380.982483 600.515930,380.911438 578.356934,380.608429 
	C592.423889,380.257385 606.826416,380.116119 621.229187,380.041199 
	C629.182739,379.999847 637.136902,380.069855 645.540588,380.228577 
z"/>
<path fill="#023F74" opacity="1.000000" stroke="none" 
	d="
M498.465118,382.095917 
	C497.528381,382.105957 497.058594,382.068085 496.238068,381.985535 
	C497.296997,381.505920 498.705322,380.697388 500.116608,380.692261 
	C520.107300,380.619324 540.098450,380.655334 560.539917,380.797180 
	C560.814575,381.247101 560.638794,381.564789 560.232666,382.036560 
	C539.645630,382.143127 519.288879,382.095581 498.465118,382.095917 
z"/>
<path fill="#31557F" opacity="1.000000" stroke="none" 
	d="
M322.370056,475.912659 
	C324.934387,471.158600 330.240021,470.655457 334.972046,469.054260 
	C331.013641,471.506073 326.876495,473.704468 322.370056,475.912659 
z"/>
<path fill="#31557F" opacity="1.000000" stroke="none" 
	d="
M575.789612,380.252991 
	C575.999634,380.567444 575.930420,380.794159 575.645935,381.304932 
	C575.457214,381.114410 575.483826,380.639832 575.789612,380.252991 
z"/>
<path fill="#FCFCFD" opacity="1.000000" stroke="none" 
	d="
M493.077148,478.920868 
	C487.525452,490.069550 478.688538,495.056763 467.458771,493.656311 
	C456.755157,492.321503 448.530823,484.641022 446.860046,472.959229 
	C446.007080,466.995575 446.198669,460.578979 447.435547,454.685547 
	C449.746521,443.673798 459.122131,436.694153 470.163788,436.458954 
	C481.381653,436.220032 490.495667,442.644623 493.850891,453.548645 
	C496.419006,461.894653 496.238861,470.295197 493.077148,478.920868 
z"/>
<path fill="#FCFCFD" opacity="1.000000" stroke="none" 
	d="
M259.088501,429.539124 
	C259.088501,416.761078 259.088501,403.983032 259.088501,389.868439 
	C268.860962,390.515259 278.344635,390.297546 287.471252,391.997131 
	C295.739014,393.536743 299.518280,401.005951 299.150238,411.027863 
	C298.766754,421.470276 294.473816,426.702942 283.461975,429.445435 
	C274.840729,429.612305 266.964630,429.575714 259.088501,429.539124 
z"/>
<path fill="#023F74" opacity="1.000000" stroke="none" 
	d="
M257.024445,412.995514 
	C257.024475,405.706757 257.024475,398.916840 257.024475,392.126892 
	C257.241577,392.127899 257.458679,392.128937 257.675781,392.129944 
	C257.675781,403.973328 257.675781,415.816742 257.675781,427.660126 
	C257.458649,427.671082 257.241547,427.682007 257.024414,427.692963 
	C257.024414,422.960083 257.024414,418.227203 257.024445,412.995514 
z"/>
<path fill="#023F74" opacity="1.000000" stroke="none" 
	d="
M259.278259,429.926758 
	C266.964630,429.575714 274.840729,429.612305 283.157349,429.664368 
	C283.655945,430.083588 283.714111,430.487396 283.772278,430.891174 
	C275.670868,430.698914 267.569458,430.506653 259.278259,429.926758 
z"/>
<path fill="#FFFFFF" opacity="1.000000" stroke="none" 
	d="
M300.507690,480.493469 
	C300.508484,480.513123 300.506897,480.473846 300.507690,480.493469 
z"/>
</svg>